<?xml version="1.0" encoding="UTF-8"?>
<svg id="Artwork" xmlns="http://www.w3.org/2000/svg" version="1.1" viewBox="0 0 341.44 125.66">
  <!-- Generator: Adobe Illustrator 30.3.0, SVG Export Plug-In . SVG Version: 2.1.3 Build 182)  -->
  <defs>
    <style>
      .st0 {
        fill: #ed2424;
      }
    </style>
  </defs>
  <path class="st0" d="M157.12,38.5h-10.1l4.44-21.29c.28-1.37-.76-1.89-2.54-1.84h-20.77c-1.17,0-2.16,1.26-2.76,4l-3.99,19.13h-8.22c-1.17,0-2.16,1.27-2.76,4.02l-2.34,10.76h10.1l-7.76,36.16c-1.02,4.68-1.32,8.34-1.32,10.24,0,11.57,7.47,17.57,22.11,17.57,3.95,0,7.9-.44,12.3-1.03l1.75-8.06c.3-1.38-.75-2.11-2.54-1.83v-.02c-.61.08-1.17.13-1.64.13-4.39,0-6.73-2.05-6.73-5.56,0-1.32.29-4.25,1.17-8.64l8.29-38.96h13.18l2.69-12.92c.3-1.38-.75-1.9-2.54-1.86Z"/>
  <path class="st0" d="M72.71,36.3c-9.81,0-18.44,4.4-26.79,13.18l1.95-9.13c.28-1.38-.75-1.89-2.55-1.85h-18.73c-1.17,0-2.17,1.27-2.76,4.02h0s-15.68,73.7-15.68,73.7h25.32l8.64-40.55c2.63-12.44,9.51-19.32,18.44-19.32,5.85,0,8.64,2.93,8.64,8.93,0,.88-.29,4.24-1.47,9.81l-8.64,41.13h25.32l9.08-43.03c1.32-5.86,1.9-10.98,1.9-14.94,0-13.9-8.05-21.96-22.69-21.96Z"/>
  <path class="st0" d="M323.99,39.71c-2.3-.46-4.58-.79-6.96-1.03-30.66-2.09-50.57,13.16-54.7,38.64-3.83,23.8,11.97,41.57,38.09,39.76,9.86-.68,14.88-2.1,19.73-4.75l1.63-15.45h0c.13-1.24-.37-2.39-1.91-1.52h0c-6.42,3.45-11.25,3.56-15.89,3.61-14.76.14-22.19-9.7-15.92-26.52,4.8-12.87,21.05-19.56,37.69-13.61l2.74-12.93h0c.7-3.31-.68-5.27-4.51-6.19Z"/>
  <path class="st0" d="M212.58,116.71c-6.49.52-21.86,1.29-31.43-1.93h0c-14.21-4.2-18.94-15.82-14.79-35.42l6.58-29.68c.59-2.76,1.59-3.26,2.76-4.03,2.42-1.59,25.55-11.51,24.29-5.6l-9.12,41.61c-.26,1.26-.43,2.42-.51,3.52v.03c-2.04,15.97,3,25.66,15.53,29.48.16.05.35.1.55.16.5.14,1.02.27,1.55.39,1.18.28,2.66.58,4.37.83.97.13,1.16.56.21.64ZM225.71,45.66c-1.1.72-2.04,1.2-2.64,3.54l-7.19,32.47c-.26,1.26-.43,2.42-.5,3.52-.51,7.3,3,11.1,9.96,11.1s11.94-3.94,14.51-10.94c0-.03,0-.05.02-.08.33-1.11.64-2.24.92-3.4.01-.07.03-.13.04-.2l9.17-41.61c1.25-5.91-21.87,4.02-24.29,5.6Z"/>
</svg>